<svg width="75" height="61" viewBox="0 0 75 61" fill="none" xmlns="http://www.w3.org/2000/svg">
<rect x="3" y="2" width="69" height="57" fill="#1F2326"/>
<path fill-rule="evenodd" clip-rule="evenodd" d="M70 3H5C3.89543 3 3 3.89543 3 5V56C3 57.1046 3.89543 58 5 58H70C71.1046 58 72 57.1046 72 56V5C72 3.89543 71.1046 3 70 3ZM5 0C2.23858 0 0 2.23858 0 5V56C0 58.7614 2.23858 61 5 61H70C72.7614 61 75 58.7614 75 56V5C75 2.23858 72.7614 0 70 0H5Z" fill="#6D8086"/>
<path d="M22.7007 26.4168L9 20.408V16L26.7011 24.7696V28.1568L9 36.9496V32.4952L22.7007 26.4168Z" fill="#CBCB41"/>
<path d="M47.4698 45H28.4836V41.4968H47.4698V45Z" fill="#CBCB41"/>
<path d="M53.0247 26.556L66 32.4256V36.9728L49.0451 28.18V24.7928L66 16.0232V20.5704L53.0247 26.556Z" fill="#CBCB41"/>
</svg>
